<svg width="81" height="20" fill="none" xmlns="http://www.w3.org/2000/svg"><path d="M3.914 16.608h6.11V19H.95V.93h2.964v15.678zm7.08-4.836c0-1.439.295-2.713.885-3.822.606-1.11 1.421-1.967 2.444-2.574a6.546 6.546 0 0 1 3.432-.936c1.126 0 2.106.225 2.938.676.85.433 1.525.98 2.028 1.638v-2.08h2.99V19h-2.99v-2.132c-.503.676-1.188 1.24-2.054 1.69-.867.45-1.855.676-2.964.676a6.365 6.365 0 0 1-3.38-.936c-1.023-.641-1.838-1.525-2.444-2.652-.59-1.144-.884-2.435-.884-3.874zm11.727.052c0-.988-.208-1.846-.624-2.574-.399-.728-.928-1.283-1.586-1.664a4.183 4.183 0 0 0-2.132-.572c-.763 0-1.474.19-2.132.572-.659.364-1.196.91-1.612 1.638-.399.71-.598 1.56-.598 2.548s.2 1.855.598 2.6c.416.745.953 1.317 1.612 1.716a4.277 4.277 0 0 0 2.132.572c.762 0 1.473-.19 2.132-.572.658-.381 1.187-.936 1.586-1.664.416-.745.624-1.612.624-2.6zm25.603-7.15L43.878 19h-3.12L37.872 8.418 34.986 19h-3.12L27.394 4.674h3.016l2.99 11.518 3.042-11.518h3.094l2.912 11.466 2.964-11.466h2.912zm8.923-.234c1.127 0 2.132.234 3.016.702a4.974 4.974 0 0 1 2.106 2.08c.503.919.754 2.028.754 3.328V19h-2.938v-8.008c0-1.283-.32-2.262-.962-2.938-.641-.693-1.517-1.04-2.626-1.04-1.11 0-1.993.347-2.652 1.04-.641.676-.962 1.655-.962 2.938V19h-2.964V4.674h2.964v1.638a4.928 4.928 0 0 1 1.846-1.378 6.035 6.035 0 0 1 2.418-.494zm12.1 2.314a4.584 4.584 0 0 1 1.717-1.69c.728-.416 1.586-.624 2.574-.624v3.068h-.754c-1.162 0-2.046.295-2.652.884-.59.59-.884 1.612-.884 3.068V19h-2.964V4.674h2.964v2.08z" fill="#fff"/><path d="M78.132 19.24c-.693 0-1.28-.24-1.76-.72a2.394 2.394 0 0 1-.72-1.76c0-.693.24-1.28.72-1.76s1.067-.72 1.76-.72c.667 0 1.227.24 1.68.72.48.48.72 1.067.72 1.76 0 .693-.24 1.28-.72 1.76-.453.48-1.013.72-1.68.72z" fill="#E35E5E"/></svg>